<?xml version="1.0" encoding="UTF-8" standalone="no"?>
<!-- Uploaded to: SVG Repo, www.svgrepo.com, Generator: SVG Repo Mixer Tools -->

<svg
   fill="#000000"
   height="21.546804"
   width="23.356649"
   version="1.1"
   viewBox="0 0 2.9195812 2.6933505"
   xml:space="preserve"
   id="svg36"
   sodipodi:docname="extentIcon.svg"
   inkscape:version="1.2.1 (9c6d41e410, 2022-07-14)"
   xmlns:inkscape="http://www.inkscape.org/namespaces/inkscape"
   xmlns:sodipodi="http://sodipodi.sourceforge.net/DTD/sodipodi-0.dtd"
   xmlns="http://www.w3.org/2000/svg"
   xmlns:svg="http://www.w3.org/2000/svg"><defs
   id="defs40" /><sodipodi:namedview
   id="namedview38"
   pagecolor="#ffffff"
   bordercolor="#000000"
   borderopacity="0.25"
   inkscape:showpageshadow="2"
   inkscape:pageopacity="0.0"
   inkscape:pagecheckerboard="0"
   inkscape:deskcolor="#d1d1d1"
   showgrid="false"
   inkscape:zoom="11.341993"
   inkscape:cx="-2.0278623"
   inkscape:cy="23.584921"
   inkscape:window-width="1920"
   inkscape:window-height="991"
   inkscape:window-x="285"
   inkscape:window-y="1791"
   inkscape:window-maximized="1"
   inkscape:current-layer="turf-extent" />
<g
   id="turf-extent"
   transform="matrix(0.03377581,0,0,0.03377581,-0.24784689,-0.33059765)">
	
	
	
	
	<path
   d="m 36.674,82 h -9.256 c -1.104,0 -2,0.896 -2,2 0,1.104 0.896,2 2,2 h 9.256 c 1.104,0 2,-0.896 2,-2 0,-1.104 -0.895,-2 -2,-2 z"
   id="path10" />
	<path
   d="M 55.187,82 H 45.93 c -1.104,0 -2,0.896 -2,2 0,1.104 0.896,2 2,2 h 9.256 c 1.104,0 2,-0.896 2,-2 0,-1.104 -0.895,-2 -1.999,-2 z"
   id="path12" /><path
   d="M 55.187,14 H 45.93 c -1.104,0 -2,0.896 -2,2 0,1.104 0.896,2 2,2 h 9.256 c 1.104,0 2,-0.896 2,-2 0,-1.104 -0.895,-2 -1.999,-2 z"
   id="path12-7" />
	<path
   d="m 73.698,82 h -9.256 c -1.104,0 -2,0.896 -2,2 0,1.104 0.896,2 2,2 h 9.256 c 1.104,0 2,-0.896 2,-2 0,-1.104 -0.895,-2 -2,-2 z"
   id="path14" />
	<path
   d="M 18.162,82 H 15 v -3.294 c 0,-1.104 -0.896,-2 -2,-2 -1.104,0 -2,0.896 -2,2 v 5 C 11,84.811 12.058,86 13.162,86 h 5 c 1.104,0 2,-0.896 2,-2 0,-1.104 -0.895,-2 -2,-2 z"
   id="path16" />
	
	<path
   d="m 15,32.23 c 0,-1.104 -0.896,-2 -2,-2 -1.104,0 -2,0.896 -2,2 v 11.619 c 0,1.104 0.896,2 2,2 1.104,0 2,-0.896 2,-2 z"
   id="path30-7" />
	<path
   d="m 13,22.612 c 1.104,0 2,-0.896 2,-2 V 18 h 3.162 c 1.104,0 2,-0.896 2,-2 0,-1.104 -0.896,-2 -2,-2 h -5 C 12.058,14 11,14.507 11,15.612 v 5 c 0,1.104 0.896,2 2,2 z"
   id="path22" />
	<path
   d="m 27.418,18 h 9.256 c 1.104,0 2,-0.896 2,-2 0,-1.104 -0.896,-2 -2,-2 h -9.256 c -1.104,0 -2,0.896 -2,2 0,1.104 0.895,2 2,2 z"
   id="path24" />
	<path
   d="m 73.698,14 h -9.256 c -1.104,0 -2,0.896 -2,2 0,1.104 0.896,2 2,2 h 9.256 c 1.104,0 2,-0.896 2,-2 0,-1.104 -0.895,-2 -2,-2 z"
   id="path26" />
	<path
   d="M 82.954,18 H 86 v 2.612 c 0,1.104 0.896,2 2,2 1.104,0 2,-0.896 2,-2 v -5 C 90,14.507 89.059,14 87.954,14 h -5 c -1.104,0 -2,0.896 -2,2 0,1.104 0.896,2 2,2 z"
   id="path28" /><path
   d="M 86,78.953997 V 82 h -2.612001 c -1.104,0 -2,0.896 -2,2 0,1.104 0.896,2 2,2 H 88.388 C 89.493,86 90,85.059 90,83.954 v -5.000003 c 0,-1.104 -0.896,-2 -2,-2 -1.104,0 -2,0.896 -2,2 z"
   id="path28-9" />
	<path
   d="m 90,32.231 c 0,-1.104 -0.896,-2 -2,-2 -1.104,0 -2,0.896 -2,2 V 43.85 c 0,1.104 0.896,2 2,2 1.104,0 2,-0.896 2,-2 z"
   id="path30" />
	<path
   d="m 88,53.469 c -1.104,0 -2,0.896 -2,2 v 11.618 c 0,1.104 0.896,2 2,2 1.104,0 2,-0.896 2,-2 V 55.469 c 0,-1.105 -0.896,-2 -2,-2 z"
   id="path32" /><path
   d="m 13,53.469 c -1.104,0 -2,0.896 -2,2 v 11.618 c 0,1.104 0.896,2 2,2 1.104,0 2,-0.896 2,-2 V 55.469 c 0,-1.105 -0.896,-2 -2,-2 z"
   id="path32-1" />
</g>
<g
   id="Layer_1"
   transform="translate(-7.338,-9.7880007)">
</g>
</svg>
